<?xml version="1.0" standalone="no"?>
<!DOCTYPE svg PUBLIC "-//W3C//DTD SVG 20010904//EN"
 "http://www.w3.org/TR/2001/REC-SVG-20010904/DTD/svg10.dtd">
<svg version="1.0" xmlns="http://www.w3.org/2000/svg"
 width="512.000000pt" height="512.000000pt" viewBox="0 0 512.000000 512.000000"
 preserveAspectRatio="xMidYMid meet">

<g transform="translate(0.000000,512.000000) scale(0.100000,-0.100000)"
fill="#000000" stroke="none">
<path d="M2345 4935 c-14 -13 -25 -35 -25 -47 0 -20 -8 -25 -55 -36 -301 -70
-567 -336 -637 -637 l-13 -55 -63 0 c-53 0 -67 -4 -87 -25 -25 -24 -25 -26
-25 -216 l0 -191 32 -30 32 -29 -118 -677 c-65 -372 -120 -689 -123 -703 -5
-24 -17 -29 -207 -83 -170 -49 -211 -64 -252 -95 -58 -44 -112 -113 -139 -178
-19 -46 -20 -77 -23 -886 l-3 -837 25 -25 25 -25 1871 0 1871 0 24 25 25 24 0
813 c0 500 -4 830 -10 856 -23 97 -93 198 -172 248 -21 14 -127 50 -236 81
-108 30 -198 56 -199 57 -1 1 -57 317 -124 703 l-123 702 32 29 32 30 0 191
c0 190 0 192 -25 216 -20 21 -34 25 -87 25 l-63 0 -13 55 c-48 204 -199 413
-382 527 -84 52 -205 104 -268 114 -36 6 -42 10 -42 31 0 13 -11 35 -25 48
-24 25 -26 25 -215 25 -189 0 -191 0 -215 -25z m295 -177 l0 -43 -80 0 -80 0
0 37 c0 40 4 42 118 46 l42 2 0 -42z m26 -226 c84 -43 128 -117 128 -212 0
-137 -96 -234 -234 -234 -138 0 -234 97 -234 234 0 112 62 195 174 231 38 13
123 3 166 -19z m612 -924 c-7 -107 -48 -176 -133 -221 -36 -20 -59 -22 -213
-25 l-174 -4 -83 81 c-69 68 -88 81 -115 81 -27 0 -46 -13 -115 -81 l-83 -81
-174 4 c-145 3 -179 6 -208 22 -89 47 -131 115 -138 224 l-5 72 723 0 723 0
-5 -72z m-652 -349 l64 -60 227 3 c223 3 229 4 281 29 l54 27 -7 -27 c-3 -14
-21 -58 -40 -96 -120 -251 -365 -405 -645 -405 -281 0 -528 155 -646 405 -18
39 -36 83 -40 99 -7 28 -6 28 17 13 59 -37 127 -47 337 -47 l204 0 61 60 c34
33 64 60 66 60 2 0 33 -27 67 -61z m-146 -779 l0 -80 -320 0 -320 0 0 80 0 80
320 0 320 0 0 -80z m800 0 l0 -80 -320 0 -320 0 0 80 0 80 320 0 320 0 0 -80z
m880 -1320 l0 -40 80 0 80 0 0 -80 0 -80 -320 0 -320 0 0 80 0 80 160 0 160 0
0 40 0 40 80 0 80 0 0 -40z m-2720 -120 l0 -80 -320 0 -320 0 0 80 0 80 320 0
320 0 0 -80z m1040 0 l0 -80 -440 0 -440 0 0 80 0 80 440 0 440 0 0 -80z
m1040 0 l0 -80 -440 0 -440 0 0 80 0 80 440 0 440 0 0 -80z m-2080 -320 l0
-80 -320 0 -320 0 0 80 0 80 320 0 320 0 0 -80z m1040 0 l0 -80 -440 0 -440 0
0 80 0 80 440 0 440 0 0 -80z m1040 0 l0 -80 -440 0 -440 0 0 80 0 80 440 0
440 0 0 -80z m800 0 l0 -80 -320 0 -320 0 0 80 0 80 320 0 320 0 0 -80z"/>
<path d="M2480 4320 l0 -80 80 0 80 0 0 80 0 80 -80 0 -80 0 0 -80z"/>
</g>
</svg>
