<?xml version="1.0" standalone="no"?>
<!DOCTYPE svg PUBLIC "-//W3C//DTD SVG 20010904//EN"
 "http://www.w3.org/TR/2001/REC-SVG-20010904/DTD/svg10.dtd">
<svg version="1.0" xmlns="http://www.w3.org/2000/svg"
 width="512.000000pt" height="512.000000pt" viewBox="0 0 512.000000 512.000000"
 preserveAspectRatio="xMidYMid meet">

<g transform="translate(0.000000,512.000000) scale(0.100000,-0.100000)"
fill="#000000" stroke="none">
<path d="M2251 4720 c-258 -54 -492 -233 -607 -465 -71 -144 -86 -217 -91
-447 l-5 -198 -55 0 c-65 0 -103 -18 -140 -66 -40 -53 -40 -135 0 -188 37 -48
75 -66 142 -66 l55 0 0 -95 0 -95 -101 0 c-55 0 -121 -5 -147 -12 -62 -15
-125 -78 -140 -140 -17 -65 -17 -971 0 -1035 14 -59 78 -127 133 -142 22 -6
88 -11 148 -11 l107 0 0 -425 0 -425 -113 0 c-70 0 -136 -6 -172 -15 -146 -38
-253 -158 -271 -302 -8 -63 -19 -50 141 -157 276 -185 580 -316 880 -379 718
-151 1447 0 2038 422 l78 56 -5 53 c-10 116 -91 229 -204 284 -64 32 -72 33
-209 37 l-143 3 0 424 0 424 108 0 c59 0 125 5 147 11 55 15 119 83 133 142
17 64 17 970 0 1035 -14 58 -76 122 -134 140 -23 6 -89 12 -148 12 l-106 0 0
89 0 88 56 7 c67 8 103 25 137 66 93 111 -1 270 -160 270 l-33 0 0 108 c0 248
-27 390 -103 537 -83 160 -209 285 -379 374 -146 77 -185 84 -508 87 -157 1
-305 -1 -329 -6z m400 -1825 c26 -3 79 -21 118 -40 257 -123 344 -451 185
-690 -125 -189 -373 -263 -581 -174 -195 83 -315 298 -283 505 25 159 123 293
263 360 72 34 170 54 227 48 14 -2 46 -6 71 -9z"/>
<path d="M2465 2641 c-168 -78 -183 -314 -25 -408 115 -70 261 -31 322 86 83
159 -26 342 -204 341 -30 0 -70 -8 -93 -19z"/>
</g>
</svg>
